<?xml version="1.0" encoding="UTF-8" standalone="no"?>
<!-- Created with Inkscape (http://www.inkscape.org/) -->

<svg
   xmlns:dc="http://purl.org/dc/elements/1.1/"
   xmlns:cc="http://creativecommons.org/ns#"
   xmlns:rdf="http://www.w3.org/1999/02/22-rdf-syntax-ns#"
   xmlns:svg="http://www.w3.org/2000/svg"
   xmlns="http://www.w3.org/2000/svg"
   xmlns:sodipodi="http://sodipodi.sourceforge.net/DTD/sodipodi-0.dtd"
   xmlns:inkscape="http://www.inkscape.org/namespaces/inkscape"
   width="297mm"
   height="210mm"
   viewBox="0 0 297 210"
   version="1.1"
   id="svg8"
   inkscape:version="0.92.2 (5c3e80d, 2017-08-06)"
   sodipodi:docname="SuffolkLITLab_white_and_gold_on_transparent.svg"
   inkscape:export-filename="H:\logos\SuffolkLITLab_white_and_gold_on_transparent_bg.png"
   inkscape:export-xdpi="96"
   inkscape:export-ydpi="96">
  <defs
     id="defs2">
    <path
       style="color:#000000;font-style:normal;font-variant:normal;font-weight:normal;font-stretch:normal;font-size:medium;line-height:normal;font-family:sans-serif;font-variant-ligatures:normal;font-variant-position:normal;font-variant-caps:normal;font-variant-numeric:normal;font-variant-alternates:normal;font-feature-settings:normal;text-indent:0;text-align:start;text-decoration:none;text-decoration-line:none;text-decoration-style:solid;text-decoration-color:#000000;letter-spacing:normal;word-spacing:normal;text-transform:none;writing-mode:lr-tb;direction:ltr;text-orientation:mixed;dominant-baseline:auto;baseline-shift:baseline;text-anchor:start;white-space:normal;shape-padding:0;clip-rule:nonzero;display:inline;overflow:visible;visibility:visible;opacity:1;isolation:auto;mix-blend-mode:normal;color-interpolation:sRGB;color-interpolation-filters:linearRGB;solid-color:#000000;solid-opacity:1;vector-effect:none;fill:none;fill-opacity:1;fill-rule:nonzero;stroke:none;stroke-width:0.86810279;stroke-linecap:butt;stroke-linejoin:miter;stroke-miterlimit:4;stroke-dasharray:none;stroke-dashoffset:0;stroke-opacity:1;color-rendering:auto;image-rendering:auto;shape-rendering:auto;text-rendering:auto;enable-background:accumulate"
       d="m 109.23336,152.8457 c -31.268253,0 -59.581353,7.10456 -80.111353,18.62328 -20.5300021,11.51871 -33.3125024,27.49161 -33.3125024,45.19878 0,17.70716 12.7825003,33.67817 33.3125024,45.19687 20.53,11.51871 48.8431,18.62328 80.111353,18.62328 31.26823,0 59.58133,-7.10457 80.11133,-18.62328 20.53,-11.5187 33.3125,-27.48971 33.3125,-45.19687 0,-17.70717 -12.7825,-33.68007 -33.3125,-45.19878 -20.53,-11.51872 -48.8431,-18.62328 -80.11133,-18.62328 z m 0,0.85857 c 31.13191,0 59.31114,7.08397 79.67383,18.50879 20.36268,11.42484 32.87305,27.1512 32.87305,44.4547 0,17.3035 -12.51037,33.02795 -32.87305,44.45279 -20.36269,11.42483 -48.54192,18.50878 -79.67383,18.50878 -31.131933,0 -59.311163,-7.08395 -79.673853,-18.50878 -20.3626924,-11.42484 -32.8730524,-27.14929 -32.8730524,-44.45279 0,-17.3035 12.51036,-33.02986 32.8730524,-44.4547 20.36269,-11.42482 48.54192,-18.50879 79.673853,-18.50879 z"
       id="path5784-2-8-3"
       inkscape:connector-curvature="0"
       inkscape:export-xdpi="96"
       inkscape:export-ydpi="96" />
    <path
       style="fill:#002e5d;fill-opacity:1;stroke:none;stroke-width:1.17937708;stroke-miterlimit:4;stroke-dasharray:none;stroke-opacity:1"
       d="m -40.138657,88.21184 a 70.587547,68.502671 0 0 0 -70.587553,-68.50268 70.587547,68.502671 0 0 0 -70.58754,68.50268 70.587547,68.502671 0 0 0 70.58754,68.50267 70.587547,68.502671 0 0 0 70.587553,-68.50267 z"
       id="path5964-8-4"
       inkscape:connector-curvature="0"
       inkscape:export-xdpi="96"
       inkscape:export-ydpi="96" />
    <path
       inkscape:export-ydpi="96"
       inkscape:export-xdpi="96"
       inkscape:connector-curvature="0"
       id="path5964-8-8"
       d="m -40.138657,88.21184 a 70.587547,68.502671 0 0 0 -70.587553,-68.50268 70.587547,68.502671 0 0 0 -70.58754,68.50268 70.587547,68.502671 0 0 0 70.58754,68.50267 70.587547,68.502671 0 0 0 70.587553,-68.50267 z"
       style="fill:#002e5d;fill-opacity:1;stroke:none;stroke-width:1.17937708;stroke-miterlimit:4;stroke-dasharray:none;stroke-opacity:1" />
  </defs>
  <sodipodi:namedview
     id="base"
     pagecolor="#ffffff"
     bordercolor="#666666"
     borderopacity="1.0"
     inkscape:pageopacity="0.0"
     inkscape:pageshadow="2"
     inkscape:zoom="0.37311503"
     inkscape:cx="-88.952094"
     inkscape:cy="354.47326"
     inkscape:document-units="mm"
     inkscape:current-layer="layer1"
     showgrid="false"
     inkscape:window-width="1920"
     inkscape:window-height="1014"
     inkscape:window-x="-8"
     inkscape:window-y="-8"
     inkscape:window-maximized="1"
     showguides="true"
     inkscape:pagecheckerboard="true">
    <inkscape:grid
       type="xygrid"
       id="grid6478" />
  </sodipodi:namedview>
  <metadata
     id="metadata5">
    <rdf:RDF>
      <cc:Work
         rdf:about="">
        <dc:format>image/svg+xml</dc:format>
        <dc:type
           rdf:resource="http://purl.org/dc/dcmitype/StillImage" />
        <dc:title />
      </cc:Work>
    </rdf:RDF>
  </metadata>
  <g
     inkscape:label="Layer 1"
     inkscape:groupmode="layer"
     id="layer1"
     transform="translate(0,-87)">
    <g
       transform="matrix(2.3476424,0,0,2.3476424,63.499989,-410.25831)"
       id="g6267">
      <g
         transform="translate(1.2656021e-5)"
         id="g5459">
        <rect
           style="fill:#ffffff;fill-opacity:1;stroke:none;stroke-width:0.78372407;stroke-miterlimit:4;stroke-dasharray:none;stroke-opacity:1"
           id="rect819-71-5-1-5-3-7-8"
           width="12.541334"
           height="61.020012"
           x="8.191324e-006"
           y="213.97011"
           inkscape:export-xdpi="96"
           inkscape:export-ydpi="96" />
        <path
           sodipodi:nodetypes="ccccccc"
           inkscape:connector-curvature="0"
           id="rect819-7-4-3-1-3-6-4-3"
           d="m 1.9197504e-5,213.96994 v 61.75168 H 26.749251 l -0.0094,-12.54966 H 12.541173 v -49.20188 z"
           style="fill:#ffffff;fill-opacity:1;stroke:none;stroke-width:0.51898015;stroke-miterlimit:4;stroke-dasharray:none;stroke-opacity:1" />
        <path
           sodipodi:nodetypes="ccccccccc"
           inkscape:connector-curvature="0"
           id="rect819-7-5-8-8-3-1-5-7-4"
           d="M 72.404986,213.97008 H 16.675384 v 12.62156 h 37.233253 v 49.12998 h 12.541147 v -49.12998 h 5.955202 z"
           style="fill:#ffffff;fill-opacity:1;stroke:none;stroke-width:0.74922508;stroke-miterlimit:4;stroke-dasharray:none;stroke-opacity:1" />
        <path
           sodipodi:nodetypes="ccccccccc"
           inkscape:connector-curvature="0"
           id="rect819-2-6-0-9-0-4-6-2-7"
           d="m 30.729803,253.75767 v 9.63274 h -0.0068 l 0.0068,12.33121 h 19.063382 l -0.0068,-12.54966 h -6.515432 v -9.41429 z"
           style="fill:#ffffff;fill-opacity:1;stroke:none;stroke-width:0.46744543;stroke-miterlimit:4;stroke-dasharray:none;stroke-opacity:1" />
        <path
           style="fill:#e9c539;fill-opacity:1;stroke:none;stroke-width:0.21408518px;stroke-linecap:butt;stroke-linejoin:miter;stroke-opacity:1"
           d="m 32.542911,238.63503 c -0.825957,-1.86943 -2.183836,-1.8967 -2.480655,-4.83458 -2.743454,6.55771 -5.193317,13.69839 1.684855,17.78802 -2.484507,-3.03863 -0.833852,-6.14592 -0.430811,-8.73471 1.586635,2.33417 2.312256,3.38242 3.952068,4.14832 -0.548462,-2.58285 1.561614,-4.08626 1.076802,-7.14855 3.144989,2.2061 3.789514,5.16698 3.558297,6.97354 1.827658,-1.26792 1.722686,-2.20373 2.7431,-3.44921 0.608827,2.50465 0.969484,4.50541 -0.66934,8.18561 7.514408,-6.85608 2.99765,-9.22309 1.040256,-18.52564 -0.892258,3.64553 -2.793906,6.21145 -2.793906,6.21145 -0.155037,-5.07233 -3.541584,-6.55702 -4.193503,-9.86159 -1.885775,4.06245 -1.285238,6.0501 -3.487163,9.24734 z"
           id="path942-8-7-6-19-4-2-7"
           inkscape:connector-curvature="0"
           sodipodi:nodetypes="ccccccccccccc"
           inkscape:export-xdpi="96"
           inkscape:export-ydpi="96" />
      </g>
      <text
         inkscape:export-filename="C:\Users\dcolarusso\LITsquare.png"
         inkscape:export-ydpi="96"
         inkscape:export-xdpi="96"
         id="text5615-7-0-4-3"
         y="292.26196"
         x="-0.47150224"
         style="font-style:normal;font-variant:normal;font-weight:normal;font-stretch:normal;font-size:11.42775631px;line-height:1.25;font-family:'Angsana New';-inkscape-font-specification:'Angsana New, Normal';font-variant-ligatures:normal;font-variant-caps:normal;font-variant-numeric:normal;font-feature-settings:normal;text-align:start;letter-spacing:0px;word-spacing:0px;writing-mode:lr-tb;text-anchor:start;fill:#ffffff;fill-opacity:1;stroke:none;stroke-width:0.42853624"
         xml:space="preserve"><tspan
           style="font-style:normal;font-variant:normal;font-weight:normal;font-stretch:normal;font-size:11.42775631px;font-family:'Angsana New';-inkscape-font-specification:'Angsana New, Normal';font-variant-ligatures:normal;font-variant-caps:normal;font-variant-numeric:normal;font-feature-settings:normal;text-align:start;writing-mode:lr-tb;text-anchor:start;fill:#ffffff;fill-opacity:1;stroke-width:0.42853624"
           y="292.26196"
           x="-0.47150224"
           id="tspan5613-6-4-6-0"
           sodipodi:role="line">SuffolkLITlab.org</tspan></text>
      <g
         inkscape:export-ydpi="141.31"
         inkscape:export-xdpi="141.31"
         inkscape:export-filename="H:\LITLab\LITCon\2019\images\socmedia.png"
         transform="matrix(0.08077865,0,0,0.08077865,61.216609,282.5939)"
         id="White_Shield-0-1">
        <g
           id="g4163-0-1">
          <path
             id="path4159-8-2"
             d="m 117.2,59.3 c 0,0 0,0 0,0 z"
             class="st0"
             inkscape:connector-curvature="0"
             style="fill:#ffffff" />
          <path
             id="path4161-1-1"
             d="m 21.4,59.3 v 0 0 c 0.1,0 0,0 0,0 z"
             class="st0"
             inkscape:connector-curvature="0"
             style="fill:#ffffff" />
        </g>
        <g
           id="g4213-1-0">
          <path
             id="path4165-7-6"
             d="m 82,119.3 c 2.7,0 5.5,0.3 8.8,0.8 2.3,0.3 5,0.6 7.9,0.8 2.3,0.2 4.7,0.3 7.2,0.3 7,0 12.7,-0.8 15.5,-1.2 V 63.3 l -1,-1.6 -0.8,-1.3 v 1.3 55.4 c 0,0 -5.9,0.8 -14.2,0.8 -2.9,0 -6.1,-0.1 -9.4,-0.4 -5.6,-0.4 -10,-1 -13.7,-1 -1.7,0 -3.2,0.1 -4.6,0.4 l -0.2,2.8 c 1.3,-0.2 2.8,-0.4 4.5,-0.4 z"
             class="st1"
             inkscape:connector-curvature="0"
             style="fill:none" />
          <path
             id="path4167-6-6"
             d="m 68.3,47.7 0.1,5.3 c 0,0 4.5,-0.7 11.8,2.3 l 2.1,-4.5 c 0,-0.1 -4.3,-3.6 -14,-3.1 z"
             class="st1"
             inkscape:connector-curvature="0"
             style="fill:none" />
          <path
             id="path4169-0-2"
             d="M 79.8,47.1 C 83,24.5 61.8,15.9 59.2,13.6 c 2.5,3.7 9.1,11.5 7.1,17.9 -1.3,-1.2 -2.5,-2 -3.9,-2.5 1.3,2.2 3.2,5.5 0.8,11.5 -0.2,0.6 0.2,-6.3 -2.8,-9.4 -2.8,-2.9 -4.2,-6.3 -4.9,-10.1 1,1.3 6.2,5.4 8.7,5.9 C 61.1,17.6 53.1,17.8 46.3,9.3 45.8,8.7 45.5,8.1 45.1,7.3 c 0.4,7.4 6.4,11.4 9.9,18.4 3.1,6.2 0.9,10 0.9,10 0,0 -1.1,-2.7 -2.6,-4.4 -1.7,-2 -3.4,-2.5 -4.6,-2 2.9,5 0.9,10.3 5.4,15.7 5.4,6.8 7.2,-4.5 25.7,2.1 z"
             class="st1"
             inkscape:connector-curvature="0"
             style="fill:none" />
          <path
             id="path4171-6-0"
             d="m 56.4,116.6 c -3.7,0 -8.1,0.6 -13.7,1 -3.3,0.3 -6.5,0.4 -9.4,0.4 -8.3,0 -14.2,-0.8 -14.2,-0.8 V 61.8 60.7 l -0.7,1.1 -0.9,1.5 V 120 c 2.8,0.4 8.5,1.2 15.5,1.2 2.4,0 4.9,-0.1 7.2,-0.3 2.9,-0.2 5.6,-0.6 7.9,-0.8 3.3,-0.4 6.1,-0.8 8.8,-0.8 1.5,0 3,0.1 4.3,0.4 L 61,117 c -1.5,-0.3 -3,-0.4 -4.6,-0.4 z"
             class="st1"
             inkscape:connector-curvature="0"
             style="fill:none" />
          <path
             id="path4173-8-9"
             d="m 123.7,121.9 c 0,0 -7.6,1.6 -17.8,1.6 -2.3,0 -4.8,-0.1 -7.4,-0.3 -6.9,-0.5 -12.1,-1.6 -16.5,-1.6 -1.7,0 -3.2,0.1 -4.7,0.5 l -0.2,3.1 H 77.6 125 V 61.8 h -1.1 -0.8 l 0.6,0.9 z"
             class="st1"
             inkscape:connector-curvature="0"
             style="fill:none" />
          <path
             id="path4175-5-2"
             d="m 56.9,121.6 c -4.4,0 -9.6,1 -16.5,1.6 -2.6,0.2 -5,0.3 -7.4,0.3 -10.2,0 -17.8,-1.6 -17.8,-1.6 V 62.7 l 0.5,-0.9 H 14 13.7 v 63.5 h 47.9 l -0.2,-3.2 c -1.5,-0.3 -2.9,-0.5 -4.5,-0.5 z"
             class="st1"
             inkscape:connector-curvature="0"
             style="fill:none" />
          <path
             id="path4177-7-7"
             d="m 125.7,59.3 h -1.8 -2.3 l 1.6,2.4 h 0.8 1.1 v 63.5 H 77.5 77 l -0.2,2.4 h 0.6 48.2 c 1,0 1.8,-0.8 1.8,-1.7 V 61 c 0,-0.9 -0.7,-1.7 -1.7,-1.7 z"
             class="st0"
             inkscape:connector-curvature="0"
             style="fill:#ffffff" />
          <path
             id="path4179-9-4"
             d="M 13.7,125.3 V 61.8 H 14 v 0 0 0 0 h 1.7 l 1.5,-2.4 H 14 12.4 c -0.5,0 -1.2,0.7 -1.2,1.7 v 65 c 0,0.9 0.8,1.7 1.8,1.7 h 48.7 l -0.2,-2.4 H 13.7 Z"
             class="st0"
             inkscape:connector-curvature="0"
             style="fill:#ffffff" />
          <path
             id="path4181-8-6"
             d="m 119.5,60.5 0.8,1.3 1,1.6 V 120 c -2.8,0.4 -8.5,1.2 -15.5,1.2 -2.4,0 -4.9,-0.1 -7.2,-0.3 -2.9,-0.2 -5.6,-0.6 -7.9,-0.8 -3.3,-0.4 -6.1,-0.8 -8.8,-0.8 -1.7,0 -3.1,0.1 -4.5,0.4 l -0.2,2.4 c 1.5,-0.4 3,-0.5 4.7,-0.5 4.4,0 9.6,1 16.5,1.6 2.6,0.2 5,0.3 7.4,0.3 10.2,0 17.8,-1.6 17.8,-1.6 V 62.7 l -0.6,-0.9 -1.6,-2.4 -2,-3.1 c 0,0 0,0 0,0 v 3.1 1.1 z"
             class="st0"
             inkscape:connector-curvature="0"
             style="fill:#ffffff" />
          <path
             id="path4183-3-2"
             d="M 15.2,62.7 V 122 c 0,0 7.6,1.6 17.8,1.6 2.3,0 4.8,-0.1 7.4,-0.3 6.9,-0.5 12.1,-1.6 16.5,-1.6 1.6,0 3,0.1 4.4,0.5 l -0.2,-2.4 c -1.3,-0.2 -2.7,-0.4 -4.3,-0.4 -2.7,0 -5.5,0.3 -8.8,0.8 -2.3,0.3 -5,0.6 -7.9,0.8 -2.3,0.2 -4.7,0.3 -7.2,0.3 -7,0 -12.7,-0.8 -15.5,-1.2 V 63.3 l 0.9,-1.5 0.7,-1.1 v -1.4 -3 l -1.9,3 -1.5,2.4 z"
             class="st0"
             inkscape:connector-curvature="0"
             style="fill:#ffffff" />
          <path
             id="path4185-0-4"
             d="m 82.2,114.3 c 0,0 0,0 0,0 2.6,0 5.3,0.3 8.6,0.6 1.7,0.2 3.4,0.3 5.3,0.5 3,0.2 6.1,0.4 9.2,0.4 5.2,0 9.5,-0.3 11.9,-0.6 v -53.4 -2.3 -0.1 0 c 0,0 -0.1,0 -0.1,0 -4.8,1.3 -10.3,2 -15.9,2 -5.5,0 -10.9,-0.7 -15.7,-2 -0.4,-0.1 -0.9,-0.2 -1.3,-0.4 -1,-0.3 -1.9,-0.6 -2.8,-0.8 l -3.8,56.5 c 1.5,-0.3 3,-0.4 4.6,-0.4 z"
             class="st1"
             inkscape:connector-curvature="0"
             style="fill:none" />
          <path
             id="path4187-2-6"
             d="m 54.3,59 c -0.4,0.1 -0.8,0.2 -1.3,0.4 -4.7,1.3 -10.1,2 -15.7,2 -5.6,0 -11.1,-0.7 -15.9,-2 0,0 -0.1,0 -0.1,0 v 0 0.1 2.3 53.3 c 2.4,0.2 6.7,0.6 11.9,0.6 3.2,0 6.3,-0.1 9.2,-0.4 1.9,-0.2 3.6,-0.3 5.3,-0.5 3.2,-0.3 6,-0.6 8.6,-0.6 1.6,0 3,0.1 4.4,0.3 L 56.6,58.2 c -0.7,0.3 -1.4,0.5 -2.3,0.8 z"
             class="st1"
             inkscape:connector-curvature="0"
             style="fill:none" />
          <path
             id="path4189-9-9"
             d="m 19.1,60.7 v 1.1 55.4 c 0,0 5.9,0.8 14.2,0.8 2.9,0 6.1,-0.1 9.4,-0.4 5.6,-0.4 10,-1 13.7,-1 1.6,0 3.1,0.1 4.6,0.4 l -0.2,-2.4 c -1.4,-0.2 -2.8,-0.3 -4.4,-0.3 -2.6,0 -5.3,0.3 -8.6,0.6 -1.7,0.2 -3.4,0.3 -5.3,0.5 -3,0.2 -6.1,0.4 -9.2,0.4 -5.2,0 -9.5,-0.3 -11.9,-0.6 v -53.4 -2.3 -0.1 0 c 0,0 0.1,0 0.1,0 4.8,1.3 10.3,2 15.9,2 5.5,0 10.9,-0.7 15.7,-2 0.4,-0.1 0.9,-0.2 1.3,-0.4 0.8,-0.3 1.6,-0.5 2.4,-0.7 l -0.1,-0.9 -0.8,-1.2 c -0.7,0.2 -1.4,0.4 -2.2,0.6 C 48.6,58.3 42.9,59 37.4,59 30.7,59 24.2,58 19.1,56.2 v 0.1 3 z"
             class="st0"
             inkscape:connector-curvature="0"
             style="fill:#ffffff" />
          <path
             id="path4191-2-5"
             d="m 81.6,58.2 c 0.9,0.2 1.8,0.5 2.8,0.8 0.4,0.1 0.9,0.2 1.3,0.4 4.7,1.3 10.1,2 15.7,2 5.6,0 11.1,-0.7 15.9,-2 0,0 0.1,0 0.1,0 v 0 0.1 2.3 53.3 c -2.4,0.2 -6.7,0.6 -11.9,0.6 -3.2,0 -6.3,-0.1 -9.2,-0.4 -1.9,-0.2 -3.6,-0.3 -5.3,-0.5 -3.2,-0.3 -6,-0.6 -8.6,-0.6 0,0 0,0 0,0 -1.6,0 -3.1,0.1 -4.5,0.4 l -0.2,2.4 c 1.5,-0.3 3,-0.4 4.6,-0.4 3.7,0 8.1,0.6 13.7,1 3.3,0.3 6.5,0.4 9.4,0.4 8.3,0 14.2,-0.8 14.2,-0.8 V 61.8 60.5 59.4 56.3 56.2 C 114.5,58 108,59 101.3,59 95.8,59 90.1,58.3 85,56.8 84.1,56.5 83.2,56.3 82.4,56 82,56.9 81.7,57.6 81.6,57.9 Z"
             class="st0"
             inkscape:connector-curvature="0"
             style="fill:#ffffff" />
          <g
             id="g4211-3-2">
            <path
               id="path4193-9-4"
               d="m 85.3,49.9 c -0.8,1.6 -2.1,4.3 -2.9,6.1 -0.4,0.9 -0.7,1.6 -0.8,1.9 v 0.3 l -3.8,56.5 -0.2,2.4 -0.2,2.8 -0.2,2.4 -0.2,3.1 -0.2,2.4 -2,30.1 c -0.2,3.3 -2.5,5.8 -5.5,5.8 -3,0 -5.2,-2.4 -5.4,-5.8 l -2.2,-30.1 -0.2,-2.4 -0.2,-3.2 -0.2,-2.4 L 61,117 60.8,114.6 56.7,58.3 56.6,57.4 55.8,56.2 51.9,50.3 c 0.4,-0.5 1.8,-1.3 2.4,-1.5 -1.3,-1 -2,-1.7 -3,-3 -0.5,-0.7 -0.9,-1.4 -1.2,-2.1 -0.8,0.1 -1.4,0.3 -2,0.4 -3.4,0.7 -11.6,2.1 -18.9,2.1 -6.9,0 -13.5,-0.3 -24.9,-3.5 V 136 c 0,0.3 0.1,2.6 0.9,6 0.8,3.3 2.3,8.3 5.5,13.4 2.1,3.5 8.3,12.6 19.6,22.4 5.4,4.6 11.3,8.8 17.5,12.4 6.8,3.9 14,7.2 21.5,9.7 7.5,-2.5 14.7,-5.8 21.5,-9.7 6.2,-3.6 12.1,-7.7 17.5,-12.4 11.3,-9.7 17.5,-18.9 19.6,-22.4 3.2,-5.3 4.8,-10.4 5.6,-13.7 0.7,-3.3 0.8,-5.4 0.8,-5.7 V 42.6 c -11.4,3.3 -18,3.5 -24.9,3.5 -7.3,0 -15.5,-1.4 -18.9,-2.1 -1.9,-0.4 -4.9,-0.9 -7.7,-1.2 -0.1,1.7 -0.3,3.6 -0.7,5.5 1.6,0.8 3.2,1.6 3.2,1.6 z"
               class="st1"
               inkscape:connector-curvature="0"
               style="fill:none" />
            <path
               id="path4195-5-0"
               d="m 68.3,47.7 0.1,5.3 c 0,0 4.5,-0.7 11.8,2.3 l 2.1,-4.5 c 0,-0.1 -4.3,-3.6 -14,-3.1 z"
               class="st1"
               inkscape:connector-curvature="0"
               style="fill:none" />
            <path
               id="path4197-8-7"
               d="m 68.4,55.1 v 1.3 l 0.9,60.1 v 2.3 2.6 2.3 1.6 2.4 l 0.5,32.8 c 1.4,-0.4 2.2,-1.5 2.4,-3.1 l 2,-29.7 0.2,-2.4 0.2,-2.2 0.2,-2.6 0.2,-2.7 0.2,-2.5 4,-57.6 v -0.5 c -4,-2.4 -8.7,-2.6 -10.8,-2.1 z"
               class="st1"
               inkscape:connector-curvature="0"
               style="fill:none" />
            <path
               id="path4199-3-3"
               d="m 135.2,38.1 c -0.5,0 -1.1,0.1 -1.7,0.3 -10.9,3.2 -17.3,3.5 -24,3.5 -6.7,0 -14.7,-1.3 -18,-2 -2.1,-0.5 -5.6,-1 -8.7,-1.3 0.1,1.4 0.2,2.8 0.1,4.3 2.8,0.3 5.9,0.8 7.7,1.2 3.4,0.7 11.6,2.1 18.9,2.1 6.9,0 13.5,-0.3 24.9,-3.5 V 136 c 0,0.2 -0.1,2.4 -0.8,5.7 -0.8,3.3 -2.3,8.4 -5.6,13.7 -2.1,3.5 -8.3,12.6 -19.6,22.4 -5.4,4.6 -11.3,8.8 -17.5,12.4 -6.8,3.9 -14,7.2 -21.5,9.7 -7.5,-2.5 -14.7,-5.8 -21.5,-9.7 C 41.7,186.6 35.8,182.5 30.4,177.8 19,168 12.9,158.8 10.7,155.3 7.5,150.1 6,145.1 5.2,141.9 4.4,138.5 4.3,136.2 4.3,135.9 V 42.6 c 11.4,3.3 18,3.5 24.9,3.5 7.3,0 15.5,-1.4 18.9,-2.1 0.6,-0.1 1.3,-0.3 2,-0.4 -0.6,-1.3 -1,-2.7 -1.3,-4.2 -0.6,0.1 -1.2,0.2 -1.6,0.3 -3.3,0.7 -11.2,2 -18,2 -6.8,0 -13.1,-0.3 -24,-3.5 C 4.6,38 4,37.9 3.5,37.9 1,38.1 0,40 0,41.8 0,42.9 0,136 0,136 c 0,0 0.2,10.4 7,21.6 7,11.5 26.9,35.2 62.3,46.8 35.4,-11.5 55.2,-35.2 62.3,-46.8 6.9,-11.2 7,-21.6 7,-21.6 0,0 0,-93.1 0,-94.2 0.1,-1.8 -0.9,-3.7 -3.4,-3.7 z"
               class="st0"
               inkscape:connector-curvature="0"
               style="fill:#ffffff" />
            <path
               id="path4201-9-4"
               d="m 48.6,29.3 c 1.2,-0.5 2.9,0 4.6,2 1.5,1.7 2.6,4.4 2.6,4.4 0,0 2.2,-3.8 -0.9,-10 -3.4,-7 -9.4,-11 -9.9,-18.4 0.4,0.7 0.7,1.3 1.2,2 6.8,8.5 14.8,8.3 17.9,17.6 -2.5,-0.5 -7.7,-4.6 -8.7,-5.9 0.7,3.8 2.1,7.2 4.9,10.1 1.8,1.8 2.4,4.9 2.6,7.1 0.3,0 0.7,0 1,0 1.1,-4.5 -0.5,-7.3 -1.6,-9.2 1.4,0.5 2.6,1.4 3.9,2.5 2,-6.4 -4.6,-14.1 -7.1,-17.9 2.3,2 18.1,8.6 20.6,24.6 0.9,0.1 1.9,0.1 3,0.3 C 81,18.3 59.6,14 56.3,6.4 c -0.5,3.3 0,7.6 1.1,9.2 -3.6,-2.2 -7,-4.8 -9.2,-7.8 C 47,6.1 44,2.1 43.9,0 c -5.9,12.4 8.9,24.3 10,29.1 -2.7,-3.8 -8.7,-5 -12.2,-3.2 1.5,0.5 2.8,1.2 3.8,2.8 2.2,3.2 2.5,7.1 3.3,10.7 0.7,-0.1 1.5,-0.3 2.3,-0.4 -0.8,-3.3 -0.6,-6.5 -2.5,-9.7 z"
               class="st2"
               inkscape:connector-curvature="0"
               style="fill:#ffffff;fill-opacity:1" />
            <path
               id="path4203-5-6"
               d="m 79.8,47.1 c -18.5,-6.5 -20.2,4.7 -25.8,-2 -0.5,-0.6 -0.9,-1.2 -1.3,-1.9 -0.9,0.1 -1.8,0.3 -2.6,0.4 0.3,0.7 0.7,1.4 1.2,2.1 1,1.3 1.7,2 3,3 -0.6,0.2 -2,1 -2.4,1.5 l 3.9,5.9 0.8,1.2 0.1,0.9 4.1,56.3 0.2,2.5 0.2,2.7 0.2,2.4 0.2,3.2 0.2,2.4 2.2,30.1 c 0.2,3.3 2.4,5.8 5.4,5.8 3,0 5.3,-2.4 5.5,-5.8 l 2,-30.1 0.2,-2.4 0.2,-3.1 0.2,-2.4 0.2,-2.8 0.2,-2.4 3.8,-56.5 v -0.3 c 0.1,-0.3 0.4,-1 0.8,-1.9 0.8,-1.8 2.1,-4.5 2.9,-6.1 0,0 -1.6,-0.8 -3.1,-1.6 0.4,-1.9 0.6,-3.8 0.7,-5.5 -1,-0.1 -1.9,-0.2 -2.7,-0.3 -0.2,1.6 -0.3,3.1 -0.5,4.7 z m -0.5,10.5 -4,57.6 -0.2,2.5 -0.2,2.7 -0.2,2.6 -0.2,2.2 -0.2,2.4 -2,29.7 c -0.2,1.5 -1,2.7 -2.4,3.1 l -0.5,-32.8 v -2.4 -1.6 -2.3 -2.6 -2.3 L 68.5,56.3 V 55 c 2.2,-0.5 6.8,-0.3 10.9,1.9 z m 3,-6.9 -2.1,4.5 c -7.3,-3 -11.8,-2.3 -11.8,-2.3 l -0.1,-5.3 c 9.7,-0.4 14,3.1 14,3.1 z"
               class="st2"
               inkscape:connector-curvature="0"
               style="fill:#eeeeee;fill-opacity:1" />
            <path
               id="path4205-4-6"
               d="m 63.2,40.5 c 0.3,-0.8 0.6,-1.6 0.8,-2.3 -0.3,0 -0.7,0 -1,0 0.1,1.5 0.1,2.5 0.2,2.3 z"
               class="st2"
               inkscape:connector-curvature="0"
               style="fill:#fbfbfb;fill-opacity:1" />
            <path
               id="path4207-5-1"
               d="m 52.7,43.2 c -0.8,-1.4 -1.3,-2.8 -1.6,-4.1 -0.8,0.1 -1.6,0.3 -2.3,0.4 0.3,1.4 0.7,2.8 1.3,4.2 0.8,-0.2 1.7,-0.4 2.6,-0.5 z"
               class="st2"
               inkscape:connector-curvature="0"
               style="fill:#ffffff;fill-opacity:1" />
            <path
               id="path4209-8-3"
               d="m 80.1,42.5 c 0.8,0.1 1.8,0.2 2.7,0.3 0.1,-1.5 0,-3 -0.1,-4.3 -1.1,-0.1 -2.1,-0.2 -3,-0.3 0.3,1.4 0.4,2.8 0.4,4.3 z"
               class="st2"
               inkscape:connector-curvature="0"
               style="fill:#ffffff;fill-opacity:1" />
          </g>
        </g>
        <polygon
           id="polygon4215-3-5"
           points="44.2,150.1 46.9,158.6 39.7,153.3 32.5,158.6 35.2,150.1 28,144.8 36.9,144.8 39.7,136.3 42.5,144.8 51.4,144.8 "
           class="st2"
           style="fill:#ffffff;fill-opacity:1" />
        <polygon
           id="polygon4217-3-1"
           points="103.5,150.1 106.3,158.6 99,153.3 91.8,158.6 94.6,150.1 87.3,144.8 96.3,144.8 99,136.3 101.8,144.8 110.8,144.8 "
           class="st2"
           style="fill:#ffffff;fill-opacity:1" />
      </g>
    </g>
  </g>
</svg>
